<svg width="101" height="100" viewBox="0 0 101 100" fill="none" xmlns="http://www.w3.org/2000/svg">
<path d="M50.5 100C78.1142 100 100.5 77.6142 100.5 50C100.5 22.3858 78.1142 0 50.5 0C22.8858 0 0.5 22.3858 0.5 50C0.5 77.6142 22.8858 100 50.5 100Z" fill="white"/>
<path d="M27.5 43L27.5 28L35.5 28L35.5 35L43.5 35L43.5 43L27.5 43Z" fill="#0EA4E9"/>
<path d="M43.5 51L43.5 43L51.5 43L51.5 51L43.5 51Z" fill="#0EA4E9"/>
<path d="M51.5 59L51.5 51L59.5 51L59.5 59L51.5 59Z" fill="#0EA4E9"/>
<path d="M35.5 59L35.5 51L43.5 51L43.5 59L35.5 59Z" fill="#0EA4E9"/>
<path d="M43.5 67L43.5 59L51.5 59L51.5 67L43.5 67Z" fill="#0EA4E9"/>
<path d="M59.5 67L59.5 43L73.5 43L73.5 72L65.5 72L65.5 51L59.5 51L59.5 67Z" fill="#0EA4E9"/>
<path d="M35.5 35L35.5 28L43.5 28L51.5 28L51.5 43L43.5 43L43.5 35L35.5 35Z" fill="#0EA4E9"/>
</svg>
